<svg xmlns="http://www.w3.org/2000/svg" viewBox="0 0 420 450">
  <defs>
    <style>
      .muscle { fill: #ddd; stroke: #fff; stroke-width: 1; opacity: 0.8; }
      .muscle:hover { fill: #00f3ff; opacity: 1; }
      .label { font-family: sans-serif; font-size: 10px; fill: #666; text-anchor: middle; }
    </style>
  </defs>
  
  <!-- Front View -->
  <g id="front-view" transform="translate(0,0)">
    <text x="100" y="20" class="label">FRONT</text>
    <!-- Silhouette -->
    <path d="M100,25 C115,25 125,32 135,35 C150,38 165,45 170,55 C175,65 172,80 168,90 C175,95 185,110 185,130 C185,150 180,165 175,175 C180,180 185,195 185,210 C182,220 178,230 175,235 C175,235 172,260 160,330 C155,360 158,390 160,420 L140,420 C138,390 135,360 130,330 C125,300 115,260 100,260 C85,260 75,300 70,330 C65,360 62,390 60,420 L40,420 C42,390 45,360 40,330 C28,260 25,235 25,235 C22,230 18,220 15,210 C15,195 20,180 25,175 C20,165 15,150 15,130 C15,110 25,95 32,90 C28,80 25,65 30,55 C35,45 50,38 65,35 C75,32 85,25 100,25 Z" fill="#eee" />
    
    <!-- Muscles -->
    <g id="front-muscles">
        <path id="front-traps" class="muscle" d="M65,35 Q100,40 135,35 L145,45 Q100,55 55,45 Z" />
        <path id="front-delts-left" class="muscle" d="M30,55 Q55,45 65,55 L55,85 Q30,75 28,55 Z" />
        <path id="front-delts-right" class="muscle" d="M170,55 Q145,45 135,55 L145,85 Q170,75 172,55 Z" />
        <path id="front-pecs" class="muscle" d="M65,55 Q100,60 135,55 L130,75 Q100,85 70,75 Z M70,75 Q100,85 130,75 L125,100 Q100,105 75,100 Z" />
        <path id="front-biceps-left" class="muscle" d="M40,90 Q55,110 50,130 L35,125 Q40,105 40,90 Z" />
        <path id="front-biceps-right" class="muscle" d="M160,90 Q145,110 150,130 L165,125 Q160,105 160,90 Z" />
        <path id="front-abs" class="muscle" d="M75,100 Q100,105 125,100 L120,180 Q100,185 80,180 Z" />
        <path id="front-quads-left" class="muscle" d="M60,180 Q85,180 95,230 L90,300 Q65,300 50,280 L40,230 Q45,190 60,180 Z" />
        <path id="front-quads-right" class="muscle" d="M140,180 Q115,180 105,230 L110,300 Q135,300 150,280 L160,230 Q155,190 140,180 Z" />
    </g>
  </g>

  <!-- Back View -->
  <g id="back-view" transform="translate(210,0)">
    <text x="100" y="20" class="label">BACK</text>
    <!-- Silhouette -->
    <path d="M100,25 C115,25 125,32 135,35 C150,38 165,45 170,55 C175,65 172,80 168,90 C175,95 185,110 185,130 C185,150 180,165 175,175 C180,180 185,195 185,210 C182,220 178,230 175,235 C175,235 172,260 160,330 C155,360 158,390 160,420 L140,420 C138,390 135,360 130,330 C125,300 115,260 100,260 C85,260 75,300 70,330 C65,360 62,390 60,420 L40,420 C42,390 45,360 40,330 C28,260 25,235 25,235 C22,230 18,220 15,210 C15,195 20,180 25,175 C20,165 15,150 15,130 C15,110 25,95 32,90 C28,80 25,65 30,55 C35,45 50,38 65,35 C75,32 85,25 100,25 Z" fill="#eee" />
    
    <!-- Muscles -->
    <g id="back-muscles">
        <path id="back-traps" class="muscle" d="M80,30 L120,30 L140,55 L100,90 L60,55 Z" />
        <path id="back-lats" class="muscle" d="M60,55 L90,100 L80,160 L50,140 Z M140,55 L110,100 L120,160 L150,140 Z" />
        <path id="back-glutes" class="muscle" d="M60,190 Q100,190 100,240 Q80,260 50,240 Z M140,190 Q100,190 100,240 Q120,260 150,240 Z" />
        <path id="back-hamstrings" class="muscle" d="M50,240 Q80,260 85,320 L55,320 Q45,280 50,240 Z M150,240 Q120,260 115,320 L145,320 Q155,280 150,240 Z" />
    </g>
  </g>
</svg>
